<svg width="76" height="66" viewBox="0 0 76 66" fill="none" xmlns="http://www.w3.org/2000/svg">
<path d="M4.75 61.2857C4.75 63.8933 6.87266 66 9.5 66H33.25V42.4286H4.75V61.2857ZM42.75 66H66.5C69.1273 66 71.25 63.8933 71.25 61.2857V42.4286H42.75V66ZM71.25 18.8571H65.0008C65.9211 17.0746 66.5 15.1004 66.5 12.9643C66.5 5.8192 60.6367 0 53.4375 0C47.2625 0 43.2695 3.13795 38.1484 10.0621C33.0273 3.13795 29.0344 0 22.8594 0C15.6602 0 9.79688 5.8192 9.79688 12.9643C9.79688 15.1004 10.3609 17.0746 11.2961 18.8571H4.75C2.12266 18.8571 0 20.9638 0 23.5714V35.3571C0 36.6536 1.06875 37.7143 2.375 37.7143H73.625C74.9313 37.7143 76 36.6536 76 35.3571V23.5714C76 20.9638 73.8773 18.8571 71.25 18.8571ZM22.8445 18.8571C19.5641 18.8571 16.907 16.2201 16.907 12.9643C16.907 9.70848 19.5641 7.07143 22.8445 7.07143C25.7984 7.07143 27.9805 7.55759 35.625 18.8571H22.8445ZM53.4375 18.8571H40.657C48.2867 7.58705 50.4094 7.07143 53.4375 7.07143C56.718 7.07143 59.375 9.70848 59.375 12.9643C59.375 16.2201 56.718 18.8571 53.4375 18.8571Z" fill="#1259C3"/>
</svg>
