<svg width="72" height="56" viewBox="0 0 72 56" fill="none" xmlns="http://www.w3.org/2000/svg">
<path d="M0 50C0 53.3125 2.6875 56 6 56H66C69.3125 56 72 53.3125 72 50V28H0V50ZM24 41.5C24 40.675 24.675 40 25.5 40H42.5C43.325 40 44 40.675 44 41.5V46.5C44 47.325 43.325 48 42.5 48H25.5C24.675 48 24 47.325 24 46.5V41.5ZM8 41.5C8 40.675 8.675 40 9.5 40H18.5C19.325 40 20 40.675 20 41.5V46.5C20 47.325 19.325 48 18.5 48H9.5C8.675 48 8 47.325 8 46.5V41.5ZM72 6V12H0V6C0 2.6875 2.6875 0 6 0H66C69.3125 0 72 2.6875 72 6Z" fill="#1259C3"/>
</svg>
