<svg width="72" height="58" viewBox="0 0 72 58" fill="none" xmlns="http://www.w3.org/2000/svg">
<path d="M70.0087 30.7105L57.0487 25.6129C56.5875 25.4316 55.6312 25.1938 54.5512 25.6129L41.5913 30.7105C40.3875 31.1863 39.6 32.2965 39.6 33.5312C39.6 46.1734 47.3287 54.9188 54.5512 57.7621C55.6312 58.1812 56.5762 57.9434 57.0487 57.7621C62.82 55.4965 72 47.6348 72 33.5312C72 32.2965 71.2125 31.1863 70.0087 30.7105ZM55.8 52.3812V30.9598L66.5437 35.1852C65.9137 45.052 59.6925 50.5234 55.8 52.3812ZM25.2 29C33.1537 29 39.6 22.509 39.6 14.5C39.6 6.49102 33.1537 0 25.2 0C17.2463 0 10.8 6.49102 10.8 14.5C10.8 22.509 17.2463 29 25.2 29ZM36 33.5312C36 33.248 36.09 32.9875 36.1237 32.7156C35.8425 32.7043 35.5725 32.625 35.28 32.625H33.4012C30.9037 33.7805 28.125 34.4375 25.2 34.4375C22.275 34.4375 19.5075 33.7805 16.9988 32.625H15.12C6.7725 32.625 0 39.4445 0 47.85V52.5625C0 55.5645 2.41875 58 5.4 58H45C45.765 58 46.4963 57.8301 47.16 57.5469C41.085 52.6871 36 44.327 36 33.5312Z" fill="#1259C3"/>
</svg>
